<svg xmlns="http://www.w3.org/2000/svg" version="1.0" width="886.000000pt" height="980.000000pt" viewBox="0 0 886.000000 980.000000" preserveAspectRatio="xMidYMid meet">

<g transform="translate(0.000000,980.000000) scale(0.100000,-0.100000)" fill="#ebeaea" stroke="none">
<path d="M2362 9780 c-17 -18 -523 -857 -583 -968 l-24 -43 25 -19 c37 -29 360 -211 470 -265 l96 -47 104 42 c214 86 1047 461 1194 537 l39 20 -609 365 c-618 371 -665 398 -683 398 -6 0 -19 -9 -29 -20z" fill="#ebeaea"/>
<path d="M4145 8541 c-376 -162 -1125 -510 -1125 -521 0 -13 497 -313 632 -381 58 -29 65 -30 98 -19 71 26 925 404 1205 535 l100 46 -24 20 c-82 67 -666 400 -698 399 -5 -1 -89 -36 -188 -79z" fill="#ebeaea"/>
<path d="M5635 7769 c-33 -11 -139 -57 -235 -101 -96 -44 -303 -139 -460 -210 -316 -145 -518 -243 -538 -262 -11 -11 -1 -20 60 -54 40 -22 142 -85 226 -140 170 -113 233 -145 323 -168 139 -36 257 0 689 210 173 85 365 175 425 201 119 51 285 133 285 139 0 25 -666 407 -706 406 -5 -1 -36 -10 -69 -21z" fill="#ebeaea"/>
<path d="M6865 6878 c-159 -70 -816 -369 -1027 -467 -43 -19 -78 -39 -78 -43 0 -4 33 -26 73 -49 82 -47 251 -150 380 -232 116 -73 183 -98 266 -98 83 0 122 13 351 118 102 47 347 160 545 250 198 91 370 170 383 176 12 5 22 14 22 19 0 17 -460 307 -600 378 -37 18 -74 30 -97 29 -25 0 -102 -29 -218 -81z" fill="#ebeaea"/>
<path d="M837 6257 c-26 -25 -19 15 -263 -1472 -296 -1800 -577 -3555 -571 -3561 4 -4 1220 -206 4042 -669 1971 -324 2485 -410 3145 -526 155 -27 270 -37 270 -23 0 7 135 825 535 3248 l275 1669 229 376 c125 207 259 430 296 495 l68 119 -28 23 c-42 33 -222 139 -291 171 -32 15 -75 27 -94 26 -22 0 -133 -44 -295 -116 -315 -140 -866 -392 -955 -437 l-64 -32 26 -22 c15 -11 135 -88 268 -171 132 -82 240 -153 240 -157 0 -15 -72 -8 -335 32 -289 44 -320 46 -312 28 3 -7 100 -215 217 -463 242 -513 357 -764 366 -800 5 -22 3 -25 -18 -25 -38 0 -237 27 -406 56 -189 31 -275 57 -300 88 -37 48 -166 301 -345 681 -101 215 -207 436 -235 492 l-51 101 -88 21 c-199 46 -698 129 -710 117 -8 -8 22 -76 369 -816 105 -224 218 -475 218 -485 0 -11 -64 -3 -347 45 -335 56 -365 63 -392 92 -40 42 -307 586 -428 871 -30 73 -69 159 -86 192 -67 135 -161 224 -281 266 -65 22 -538 91 -598 87 l-37 -3 40 -95 c23 -52 91 -201 151 -330 183 -390 363 -782 382 -829 l17 -44 -63 7 c-103 11 -374 54 -513 81 -124 25 -132 27 -164 63 -34 38 -268 502 -381 757 -109 246 -186 400 -219 437 -42 48 -120 99 -203 132 -50 19 -97 29 -187 36 -66 5 -192 21 -281 36 -89 14 -164 23 -167 21 -5 -6 83 -198 364 -797 211 -447 238 -508 232 -515 -4 -3 -317 44 -552 83 -161 27 -176 38 -254 183 -34 63 -106 209 -161 324 -93 198 -133 290 -247 563 -109 261 -208 329 -542 372 -207 27 -258 26 -286 -3z m948 -1827 c723 -116 4446 -725 5248 -858 263 -44 481 -82 484 -86 12 -12 -56 -381 -76 -414 -8 -13 -92 -1 -886 127 -1527 247 -5194 854 -5449 902 l-119 22 7 86 c8 117 41 308 56 326 7 8 22 13 34 10 11 -3 327 -54 701 -115z m-339 -2495 c417 -68 1216 -199 1774 -290 1892 -309 3571 -591 3800 -638 l65 -13 3 -74 c3 -76 -10 -205 -30 -292 -11 -47 -12 -48 -51 -48 -46 0 -298 39 -932 144 -247 41 -646 107 -885 146 -1696 277 -4385 721 -4547 751 -75 13 -73 0 -43 217 28 199 35 222 64 222 13 0 365 -56 782 -125z" fill="#ebeaea"/>
</g>
</svg>